<svg xmlns="http://www.w3.org/2000/svg" viewBox="0 0 512 512" style="height: 512px; width: 512px;"><defs><filter id="shadow-1" height="300%" width="300%" x="-100%" y="-100%"><feFlood flood-color="rgba(0, 0, 0, 1)" result="flood"></feFlood><feComposite in="flood" in2="SourceGraphic" operator="atop" result="composite"></feComposite><feGaussianBlur in="composite" stdDeviation="15" result="blur"></feGaussianBlur><feOffset dx="0" dy="0" result="offset"></feOffset><feComposite in="SourceGraphic" in2="offset" operator="over"></feComposite></filter><linearGradient x1="0" x2="0" y1="0" y2="1" id="lorc-large-wound-gradient-0"><stop offset="0%" stop-color="#b8e986" stop-opacity="1"></stop><stop offset="100%" stop-color="#101f00" stop-opacity="1"></stop></linearGradient></defs><circle cx="256" cy="256" r="256" fill="url(#lorc-large-wound-gradient-0)"></circle><g class="" transform="translate(0,0)" style=""><path d="M128.648 17.008c109.003 34.557 192.306 71.064 219.7 149.158-58.572-74.49-153.467-123.28-298.842-144.98 117.47 34.102 183.435 69.43 217.81 144.527C210.64 99.858 124.57 59.073 12.512 66.82 224.765 98.88 309.19 333.65 246.664 504.285c34.37-49.026 53.516-92.46 64.922-135.967 6.433 48.942 6.577 95.272-10.29 140.573 31.854-58.362 64.562-150.973 53.526-239.745 34.39 87.13 34.71 152.248-1.875 223.523 67.038-82.263 78.11-105.023 87.188-174.656 13.478 29.99 16.32 58.098 9.595 96.12 95.74-140.367 26.28-275.754-80.074-326.415 59.778 43.85 92.914 121.168 90.96 217.254-31.8-165.58-108.18-265.18-331.968-287.962zm-106.185 107.1c72.06 35.308 129.12 88.086 164.693 147.62-29.827-37.263-75.784-70.606-138.41-98.876 112.746 90.495 170.86 215.24 153.012 321.96 87.7-207.514 3.01-348.097-179.295-370.705zm193.834 32.91c64.25 34.715 95.31 113.943 72.336 195.584 2.308-71.497-33.978-148.48-72.336-195.584z" fill="#417505" fill-opacity="1" stroke="#000000" stroke-opacity="1" stroke-width="8" transform="translate(25.6, 25.6) scale(0.9, 0.9) rotate(0, 256, 256) skewX(0) skewY(0)" filter="url(#shadow-1)"></path></g><g class="" transform="translate(256,256)" style=""><g><circle cx="128" cy="128" r="128" fill="#000000" fill-opacity="1"></circle><circle stroke="#ff0000" stroke-opacity="1" fill="#000000" fill-opacity="1" stroke-width="18" cx="128" cy="128" r="101"></circle><path fill="#ff0000" fill-opacity="1" d="M128 58c-32 0-64 16-64 37.838C64 154 96 142 96 142l-6 24h76l-6-24s32 12 32-52c0-16-32-32-64-32zm-26 38a16 16 0 0 1 16 16 16 16 0 0 1-16 16 16 16 0 0 1-16-16 16 16 0 0 1 16-16zm52 0a16 16 0 0 1 16 16 16 16 0 0 1-16 16 16 16 0 0 1-16-16 16 16 0 0 1 16-16zm-26 34l10 26h-20l10-26zm-28 51.002v17.996h56v-17.996h-56z"></path></g></g></svg>